<svg xmlns="http://www.w3.org/2000/svg" xmlns:xlink="http://www.w3.org/1999/xlink" viewBox="0 0 128 128"><defs><linearGradient id="a" x1="48.42" y1="20.11" x2="48.42" y2="77.05" gradientUnits="userSpaceOnUse"><stop offset="0" stop-color="#d93a3a"/><stop offset="1"/></linearGradient><linearGradient id="b" x1="74.55" y1="41.11" x2="74.55" y2="107.89" gradientTransform="translate(0.06 149.05) rotate(-90)" gradientUnits="userSpaceOnUse"><stop offset="0" stop-color="#a03131"/><stop offset="1" stop-color="#281f1d"/></linearGradient><linearGradient id="c" x1="90.13" y1="41.11" x2="90.13" y2="77.05" gradientTransform="matrix(1, 0, 0, 1, 0, 0)" xlink:href="#b"/></defs><circle cx="64" cy="64" r="64" style="fill:#f7f7f7"/><path d="M54.25,27.09H71.06v-7H54.25a28.47,28.47,0,0,0,0,56.94H71.06v-7H54.25a21.49,21.49,0,0,1,0-43Z" style="fill:url(#a)"/><rect x="41.16" y="71.01" width="66.78" height="6.98" transform="translate(149.05 -0.06) rotate(90)" style="fill:url(#b)"/><path d="M84.25,41.11H78v7h6.21a11,11,0,0,1,0,22H78v7h6.21a18,18,0,0,0,0-35.94Z" style="fill:url(#c)"/><circle cx="46.04" cy="51.16" r="2"/><circle cx="47.12" cy="45.06" r="2.39"/><circle cx="52.92" cy="41.5" r="2.39"/><circle cx="59.33" cy="43.89" r="1.88"/><path d="M58.56,47.61h0l-.37-.11a14.94,14.94,0,0,1-1.51-.67,3.75,3.75,0,0,0-.74-.39l0,0h0A4.34,4.34,0,0,0,50,49.75h0s0,0,0,.07,0,.3,0,.46a10.13,10.13,0,0,1-.41,2,1.18,1.18,0,0,1-.07.2.24.24,0,0,1,0,.08h0a4.34,4.34,0,0,0,6.3,5,4.19,4.19,0,0,0,.91-.69h0l0,0a2.29,2.29,0,0,0,.21-.23,5.61,5.61,0,0,1,1.46-.79l.48-.17h0a2.49,2.49,0,0,0,.4-.2,4.33,4.33,0,0,0-.63-7.85Z"/></svg>